<?xml version="1.0" encoding="UTF-8"?>
<svg version="1.1" xmlns="http://www.w3.org/2000/svg" width="162" height="168">
<path d="M0 0 C8.54721952 7.12537582 14.0495418 13.74825106 15.5 24.9375 C14.78611182 30.85257351 13.67300068 37.16735249 9.12109375 41.34375 C3.24216707 45.06815291 -2.03196192 46.30731921 -8.9375 45.5625 C-15.43922028 43.9197518 -19.79515062 41.23582733 -24.27734375 36.30859375 C-28.63613241 31.72417368 -33.26458836 28.73323048 -39.66796875 28.32421875 C-50.97780647 27.85705043 -50.97780647 27.85705043 -60.9375 32.5625 C-61.60910156 33.02527344 -62.28070313 33.48804688 -62.97265625 33.96484375 C-69.72131842 39.12410137 -74.06263353 46.23927402 -75.4453125 54.65234375 C-75.71907601 61.74281862 -73.94488376 67.22943273 -70.9375 73.5625 C-70.60105469 74.4596875 -70.26460937 75.356875 -69.91796875 76.28125 C-68.68580011 79.14812842 -67.74658818 79.35860507 -64.9375 80.5625 C-64.23625 81.201875 -63.535 81.84125 -62.8125 82.5 C-56.11365162 87.30569558 -48.01465967 88.45576844 -39.9375 87.5625 C-32.28124811 86.27094383 -27.21767988 83.21627751 -21.9375 77.5625 C-21.31875 76.655 -20.7 75.7475 -20.0625 74.8125 C-16.7028561 71.25522999 -12.67958069 70.36236903 -7.9375 69.5625 C-2.74147212 69.41613302 1.71313389 70.72595689 6.0625 73.5625 C11.98786446 79.54337139 13.38531631 83.22439634 13.45410156 91.74365234 C13.33722384 97.6915881 11.88187154 101.14531378 8.0625 105.5625 C7.464375 106.408125 6.86625 107.25375 6.25 108.125 C-5.03734953 120.70233234 -19.19508379 127.39658347 -35.98779297 128.82128906 C-39.16226314 128.97704921 -42.32183998 129.04724168 -45.5 129.0625 C-46.97944092 129.07192627 -46.97944092 129.07192627 -48.48876953 129.08154297 C-54.27247459 128.98089732 -59.2505595 128.14890629 -64.72485352 126.26831055 C-66.92813871 125.56548615 -69.02495984 125.18799437 -71.3125 124.875 C-82.19023031 122.51943516 -91.19243576 113.05279239 -98.9375 105.5625 C-99.58589844 105.005625 -100.23429687 104.44875 -100.90234375 103.875 C-113.41982122 89.65168587 -117.66478211 70.91538394 -117.21484375 52.50390625 C-116.04288406 35.84887346 -110.02840433 22.70194451 -99.9375 9.5625 C-99.47988281 8.92828125 -99.02226563 8.2940625 -98.55078125 7.640625 C-94.97030569 3.00344748 -90.64198562 0.18463461 -85.64453125 -2.8125 C-83.02762663 -4.3347016 -83.02762663 -4.3347016 -81.01171875 -5.8125 C-56.64103381 -23.10433854 -22.55629035 -16.55154411 0 0 Z " fill="#AA3771" transform="translate(129.9375,25.4375)"/>
<path d="M0 0 C8.54721952 7.12537582 14.0495418 13.74825106 15.5 24.9375 C14.78611182 30.85257351 13.67300068 37.16735249 9.12109375 41.34375 C3.24216707 45.06815291 -2.03196192 46.30731921 -8.9375 45.5625 C-16.27212652 43.70930669 -21.08282807 40.28522585 -25.9375 34.5625 C-21.54781544 34.5625 -20.16844261 36.69055101 -16.9375 39.5625 C-19.53342356 24.80672399 -28.48612608 13.60875337 -40.6171875 4.96484375 C-49.10529353 -0.16517319 -57.26690896 -0.79831459 -67 -0.875 C-68.00490479 -0.88523193 -69.00980957 -0.89546387 -70.04516602 -0.90600586 C-76.93047288 -0.82561075 -83.50247161 -0.01867543 -89.9375 2.5625 C-92.50662453 4.99554043 -92.50662453 4.99554043 -93.9375 7.5625 C-94.5975 7.8925 -95.2575 8.2225 -95.9375 8.5625 C-96.040625 9.18125 -96.14375 9.8 -96.25 10.4375 C-96.9375 12.5625 -96.9375 12.5625 -99.375 14 C-102.4178882 15.85541963 -102.94237602 17.21526481 -103.9375 20.5625 C-104.5975 20.5625 -105.2575 20.5625 -105.9375 20.5625 C-106.22625 21.531875 -106.515 22.50125 -106.8125 23.5 C-107.9375 26.5625 -107.9375 26.5625 -109.9375 27.5625 C-105.5473669 12.95727671 -95.67411667 3.14115933 -82.9375 -4.4375 C-82.30328125 -4.88996094 -81.6690625 -5.34242187 -81.015625 -5.80859375 C-56.65200137 -23.11107868 -22.55284582 -16.54901656 0 0 Z " fill="#16CAD1" transform="translate(129.9375,25.4375)"/>
<path d="M0 0 C0.33 0 0.66 0 1 0 C1.02578125 0.67804688 1.0515625 1.35609375 1.078125 2.0546875 C1.50679164 9.08871742 3.11145672 14.6125043 6 21 C6.33515625 21.89847656 6.6703125 22.79695313 7.015625 23.72265625 C8.25225761 26.58359597 9.1937496 26.79732126 12 28 C13.051875 28.9590625 13.051875 28.9590625 14.125 29.9375 C20.82384838 34.74319558 28.92284033 35.89326844 37 35 C44.65625189 33.70844383 49.71982012 30.65377751 55 25 C55.928125 23.63875 55.928125 23.63875 56.875 22.25 C60.2346439 18.69272999 64.25791931 17.79986903 69 17 C74.19602788 16.85363302 78.65063389 18.16345689 83 21 C88.92536446 26.98087139 90.32281631 30.66189634 90.39160156 39.18115234 C90.27472384 45.1290881 88.81937154 48.58281378 85 53 C84.401875 53.845625 83.80375 54.69125 83.1875 55.5625 C71.90015047 68.13983234 57.74241621 74.83408347 40.94970703 76.25878906 C37.77523686 76.41454921 34.61566002 76.48474168 31.4375 76.5 C29.95805908 76.50942627 29.95805908 76.50942627 28.44873047 76.51904297 C22.68296285 76.41870946 17.70941606 75.59598963 12.24926758 73.73022461 C9.92908117 72.9769762 7.64868898 72.49551624 5.25 72.0625 C1.06376399 71.19253621 -1.62539842 69.59584737 -5 67 C-2.13822943 65.56911472 -0.06624227 66.40008303 3 67 C3.33 68.32 3.66 69.64 4 71 C4.63164063 70.97679687 5.26328125 70.95359375 5.9140625 70.9296875 C12.48915464 70.79704875 18.6521548 71.47175425 25.140625 72.48828125 C32.06242877 73.40605078 39.02889923 73.67929561 46 74 C46 73.34 46 72.68 46 72 C52.75 69.875 52.75 69.875 55 71 C55.495 69.02 55.495 69.02 56 67 C56.68707031 66.87882812 57.37414062 66.75765625 58.08203125 66.6328125 C58.98308594 66.46523437 59.88414063 66.29765625 60.8125 66.125 C61.70582031 65.96257812 62.59914063 65.80015625 63.51953125 65.6328125 C66.22727846 65.08811551 66.22727846 65.08811551 69 63 C69.33 62.01 69.66 61.02 70 60 C71.98 59.67 73.96 59.34 76 59 C76.33 56.69 76.66 54.38 77 52 C75.84177734 52.00112793 74.68355469 52.00225586 73.49023438 52.00341797 C69.11362044 51.99969343 64.73807337 51.95641797 60.36181641 51.90234375 C58.4826555 51.88438896 56.60336487 51.87657719 54.72412109 51.87988281 C42.36480575 51.89308016 30.97678399 51.19795046 20 45 C17.66821289 42.43188477 17.66821289 42.43188477 16 40 C15.47277344 39.28457031 14.94554688 38.56914063 14.40234375 37.83203125 C13.42116925 36.47931867 12.44201925 35.12513546 11.46484375 33.76953125 C9.30512732 31.1605938 7.1873378 30.06244593 4 29 C3.67 25.7 3.34 22.4 3 19 C2.34 19 1.68 19 1 19 C-1.16205669 14.68413875 -1.06986614 11.44756775 -0.625 6.6875 C-0.45871094 4.80611328 -0.45871094 4.80611328 -0.2890625 2.88671875 C-0.14597656 1.45779297 -0.14597656 1.45779297 0 0 Z " fill="#F07F43" transform="translate(53,78)"/>
<path d="M0 0 C-2 2 -2 2 -4.37890625 3.34375 C-11.8281874 8.05089636 -18.01022023 17.81963036 -21 26 C-21.99846571 32.21544903 -22.97242355 38.89924807 -21 45 C-20.34 45 -19.68 45 -19 45 C-18.34 48.3 -17.68 51.6 -17 55 C-15.68 55.33 -14.36 55.66 -13 56 C-10.9296875 57.92578125 -10.9296875 57.92578125 -8.875 60.3125 C-7.85019531 61.48232422 -7.85019531 61.48232422 -6.8046875 62.67578125 C-5 65 -5 65 -4.0859375 67.12890625 C-2.51366943 69.83795807 -0.59875042 70.41856198 2.25 71.625 C3.23226562 72.04652344 4.21453125 72.46804687 5.2265625 72.90234375 C7.33238679 73.73577562 9.4727851 74.48246408 11.625 75.1875 C14 76 14 76 15 78 C17.71446979 78.31241455 20.33909361 78.51336592 23.0625 78.625 C23.82111328 78.66367188 24.57972656 78.70234375 25.36132812 78.7421875 C27.24047195 78.83673562 29.12020336 78.91946756 31 79 C28.74442264 82.38336604 27.63811468 82.60072512 24 84 C23.67 84.66 23.34 85.32 23 86 C17.79714228 86.21236154 13.88789368 85.56412598 9 84 C8.67 84 8.34 84 8 84 C-1.28411674 83.20986241 -10.28285592 79.14476272 -18 74 C-18 73.34 -18 72.68 -18 72 C-18.78375 71.9175 -19.5675 71.835 -20.375 71.75 C-23 71 -23 71 -24.3125 68.9375 C-24.6528125 67.9784375 -24.6528125 67.9784375 -25 67 C-25.66 67 -26.32 67 -27 67 C-27.33 64.69 -27.66 62.38 -28 60 C-28.66 60 -29.32 60 -30 60 C-30.33 59.01 -30.66 58.02 -31 57 C-31.99 59.475 -31.99 59.475 -33 62 C-33.33 62 -33.66 62 -34 62 C-34 60.02 -34 58.04 -34 56 C-34.66 56 -35.32 56 -36 56 C-36.33 56.99 -36.66 57.98 -37 59 C-37.67467562 57.25307205 -38.33944156 55.50231475 -39 53.75 C-39.37125 52.77546875 -39.7425 51.8009375 -40.125 50.796875 C-41 48 -41 48 -41 44 C-41.66 44 -42.32 44 -43 44 C-44.19287411 40.12315913 -45 37.08378077 -45 33 C-46.485 33.495 -46.485 33.495 -48 34 C-48.82300902 28.65044139 -47.03828069 25.64493405 -44.0390625 21.4375 C-40.1480871 16.78621907 -35.63130681 12.89357652 -31 9 C-30.41476563 8.47148438 -29.82953125 7.94296875 -29.2265625 7.3984375 C-21.39633383 0.91961886 -9.86054854 -0.81792568 0 0 Z " fill="#9E1162" transform="translate(75,52)"/>
<path d="M0 0 C14.11519433 -0.55113557 23.11942668 1.81070505 33.671875 11.4375 C41.24293203 18.78456126 48.59640065 26.46614546 49.1875 37.5 C49.0946875 38.7375 49.0946875 38.7375 49 40 C46.84174363 39.03250577 45.2099391 38.21906689 43.5625 36.5 C41.55990449 34.57750831 39.58977116 34.0005934 37 33 C34.6297009 31.7236851 32.32114687 30.36538051 30 29 C30 28.34 30 27.68 30 27 C28.989375 26.855625 27.97875 26.71125 26.9375 26.5625 C24.52391428 26.21770204 22.11193258 25.86110794 19.703125 25.484375 C8.71946722 24.04769402 -0.77252836 24.67606113 -11 29 C-12.03125 29.4125 -13.0625 29.825 -14.125 30.25 C-28.16081447 38.79353924 -36.80586216 49.20921871 -41 65 C-41.98468549 69.62651025 -42.57322269 74.2907331 -43 79 C-43.33 79 -43.66 79 -44 79 C-47.61307524 63.77769942 -44.50011451 48.33830959 -36.4296875 35.0546875 C-31.56624556 28.06515072 -27.01212266 23.51113838 -19.17578125 20.05078125 C-16.83603321 19.07433308 -16.83603321 19.07433308 -14.9375 16.875 C-10.9069772 12.97449407 -4.41749745 11.87378991 1 11 C1.66 9.02 2.32 7.04 3 5 C0.69 5 -1.62 5 -4 5 C-3.67 4.01 -3.34 3.02 -3 2 C-2.34 2 -1.68 2 -1 2 C-0.67 1.34 -0.34 0.68 0 0 Z " fill="#491259" transform="translate(64,25)"/>
<path d="M0 0 C1.10537109 -0.01224609 2.21074219 -0.02449219 3.34960938 -0.03710938 C4.93032227 -0.04000977 4.93032227 -0.04000977 6.54296875 -0.04296875 C7.50614014 -0.04707764 8.46931152 -0.05118652 9.46166992 -0.05541992 C11.8125 0.1875 11.8125 0.1875 13.8125 2.1875 C9.5225 1.8575 5.2325 1.5275 0.8125 1.1875 C0.4825 2.1775 0.1525 3.1675 -0.1875 4.1875 C-0.8475 4.1875 -1.5075 4.1875 -2.1875 4.1875 C-2.5175 4.8475 -2.8475 5.5075 -3.1875 6.1875 C-0.8775 6.1875 1.4325 6.1875 3.8125 6.1875 C3.8125 7.5075 3.8125 8.8275 3.8125 10.1875 C3.1525 10.1875 2.4925 10.1875 1.8125 10.1875 C1.8125 10.8475 1.8125 11.5075 1.8125 12.1875 C-0.10353157 12.83521508 -2.02035113 13.48059948 -3.9375 14.125 C-5.00484375 14.48464844 -6.0721875 14.84429687 -7.171875 15.21484375 C-10.1875 16.1875 -10.1875 16.1875 -12.453125 16.56640625 C-14.38414527 17.03052937 -14.38414527 17.03052937 -15.1171875 19.0859375 C-16.60045472 21.99833811 -18.36921414 22.47613344 -21.3125 23.8125 C-31.34726368 29.05316847 -36.24921671 37.89425959 -40.1875 48.1875 C-40.66703125 49.33605469 -40.66703125 49.33605469 -41.15625 50.5078125 C-44.07916299 58.4916952 -43.44967271 66.81739361 -43.1875 75.1875 C-42.94515625 74.22070312 -42.7028125 73.25390625 -42.453125 72.2578125 C-37.86275017 54.24656411 -31.27234652 41.87559592 -15.1875 31.1875 C-10.94799588 29.17577607 -6.67101412 27.56515043 -2.1875 26.1875 C-1.54425781 25.98640625 -0.90101562 25.7853125 -0.23828125 25.578125 C10.22257231 23.58558146 20.68750626 25.5665463 30.8125 28.1875 C30.8125 28.5175 30.8125 28.8475 30.8125 29.1875 C29.678125 29.21328125 28.54375 29.2390625 27.375 29.265625 C19.21253552 29.54156733 12.91073012 29.78659732 5.8125 34.1875 C4.8225 34.1875 3.8325 34.1875 2.8125 34.1875 C5.17542656 31.66161298 6.47712511 30.29929163 9.8125 29.1875 C0.07337872 28.4083703 -9.79100639 30.82803236 -17.5 36.9375 C-19.07436777 38.340966 -20.63711542 39.75758449 -22.1875 41.1875 C-22.991875 41.82945313 -23.79625 42.47140625 -24.625 43.1328125 C-33.61262992 50.43526181 -37.63918474 60.44592369 -39.875 71.625 C-40.64878934 80.44619849 -41.28277602 90.54458597 -36.1875 98.1875 C-36.5175 99.1775 -36.8475 100.1675 -37.1875 101.1875 C-49.20756336 80.60672392 -53.01569397 62.08680841 -48.13671875 38.4921875 C-47.16315752 35.10275212 -45.94910984 32.23974944 -44.1875 29.1875 C-43.5275 28.8575 -42.8675 28.5275 -42.1875 28.1875 C-41.13941959 26.21227154 -40.1354589 24.21268491 -39.1875 22.1875 C-38.5275 22.1875 -37.8675 22.1875 -37.1875 22.1875 C-36.8471875 20.82625 -36.8471875 20.82625 -36.5 19.4375 C-34.99192186 15.70321127 -33.36172166 14.54781867 -30.1875 12.1875 C-29.8575 11.1975 -29.5275 10.2075 -29.1875 9.1875 C-21.31130612 -0.07861045 -11.23697103 0.00662167 0 0 Z " fill="#885D95" transform="translate(63.1875,23.8125)"/>
<path d="M0 0 C0.33 0 0.66 0 1 0 C1.02578125 0.67804688 1.0515625 1.35609375 1.078125 2.0546875 C1.50679164 9.08871742 3.11145672 14.6125043 6 21 C6.50273438 22.34771484 6.50273438 22.34771484 7.015625 23.72265625 C8.25225761 26.58359597 9.1937496 26.79732126 12 28 C12.70125 28.639375 13.4025 29.27875 14.125 29.9375 C20.79731456 34.72416045 28.94647433 35.9379106 37 35 C44.75493712 33.31364533 51.38421142 31.18276498 56.375 24.8125 C59.40234586 21.17835133 59.40234586 21.17835133 61.9765625 20.41015625 C67.18808171 20.31960862 72.44042581 21.68143148 77.0625 24.0625 C79.6407932 25.31006122 82.17828807 25.6152211 85 26 C85.3461942 29.11574778 85.38513503 30.51529347 83.3984375 33.015625 C80.49540044 35.41748628 77.96031147 36.34395186 74.375 37.5 C73.73199951 37.70794189 73.08899902 37.91588379 72.42651367 38.13012695 C66.37020773 40.02132348 60.20760636 41.40077538 53.99169922 42.65625 C50.39932017 43.39281981 47.1675605 44.10280677 44 46 C44 45.34 44 44.68 44 44 C41.525 44.495 41.525 44.495 39 45 C39 45.66 39 46.32 39 47 C39.66 47.66 40.32 48.32 41 49 C31.0267401 48.82804724 20.96911038 44.39132135 13.875 37.3125 C12.90032812 36.22272868 11.93953051 35.12020946 11 34 C7.98605148 30.75098237 7.98605148 30.75098237 4 29 C3.67 25.7 3.34 22.4 3 19 C2.34 19 1.68 19 1 19 C-1.16205669 14.68413875 -1.06986614 11.44756775 -0.625 6.6875 C-0.51414063 5.43324219 -0.40328125 4.17898437 -0.2890625 2.88671875 C-0.14597656 1.45779297 -0.14597656 1.45779297 0 0 Z M75 21 C75.99 21.495 75.99 21.495 77 22 C76.01 22.495 76.01 22.495 75 23 C75 22.34 75 21.68 75 21 Z " fill="#E76130" transform="translate(53,78)"/>
<path d="M0 0 C11.60792143 3.56583207 11.60792143 3.56583207 15.33203125 7.35546875 C17.36497371 9.35984528 19.56028537 11.0584711 21.8125 12.8125 C25.82845075 16.00526904 29.55647192 19.19399528 33 23 C33 23.66 33 24.32 33 25 C33.66 25 34.32 25 35 25 C35.495 28.465 35.495 28.465 36 32 C37.98 31.67 39.96 31.34 42 31 C42.12469099 25.42169984 42.12469099 25.42169984 41 20 C41.99 20 42.98 20 44 20 C45.33811293 25.35245172 44.71305079 28.86084764 43 34 C42.01 34.66 41.02 35.32 40 36 C39.7525 36.66 39.505 37.32 39.25 38 C38 40 38 40 35 41.25 C29.57167918 42.50181403 23.46327322 43.4163821 18.5 40.5625 C16.70511699 37.49624152 16.13871758 34.725352 15.50390625 31.25390625 C14.8285672 28.23320368 13.45647116 25.71433261 12 23 C12 22.34 12 21.68 12 21 C11.01 20.67 10.02 20.34 9 20 C7.35738359 16.07597191 6.66529413 12.18184884 6 8 C5.67 7.34 5.34 6.68 5 6 C4.01 6.33 3.02 6.66 2 7 C1.34 6.67 0.68 6.34 0 6 C0 4.02 0 2.04 0 0 Z " fill="#05A0B8" transform="translate(99,26)"/>
<path d="M0 0 C0 0.33 0 0.66 0 1 C-1.134375 1.02578125 -2.26875 1.0515625 -3.4375 1.078125 C-11.59996448 1.35406733 -17.90176988 1.59909732 -25 6 C-25.99 6 -26.98 6 -28 6 C-25.63707344 3.47411298 -24.33537489 2.11179163 -21 1 C-30.73912128 0.2208703 -40.60350639 2.64053236 -48.3125 8.75 C-49.88686777 10.153466 -51.44961542 11.57008449 -53 13 C-53.804375 13.64195313 -54.60875 14.28390625 -55.4375 14.9453125 C-64.42512992 22.24776181 -68.45168474 32.25842369 -70.6875 43.4375 C-71.46128934 52.25869849 -72.09527602 62.35708597 -67 70 C-67.33 70.99 -67.66 71.98 -68 73 C-80.02006336 52.41922392 -83.82819397 33.89930841 -78.94921875 10.3046875 C-77.98253464 6.93919467 -76.66673218 4.07201618 -75 1 C-74.67 1 -74.34 1 -74 1 C-73.57553083 7.36703748 -74.98527058 12.96625075 -77 19 C-77.33 19.33 -77.66 19.66 -78 20 C-78.08700342 21.63472882 -78.10701063 23.27314055 -78.09765625 24.91015625 C-78.09443359 25.89951172 -78.09121094 26.88886719 -78.08789062 27.90820312 C-78.07951172 28.94912109 -78.07113281 29.99003906 -78.0625 31.0625 C-78.05798828 32.10728516 -78.05347656 33.15207031 -78.04882812 34.22851562 C-78.03699913 36.8190666 -78.02051689 39.40950559 -78 42 C-77.01 42 -76.02 42 -75 42 C-74.67 43.65 -74.34 45.3 -74 47 C-73.75765625 46.03320312 -73.5153125 45.06640625 -73.265625 44.0703125 C-68.67525017 26.05906411 -62.08484652 13.68809592 -46 3 C-41.76049588 0.98827607 -37.48351412 -0.62234957 -33 -2 C-32.35675781 -2.20109375 -31.71351562 -2.4021875 -31.05078125 -2.609375 C-20.58992769 -4.60191854 -10.12499374 -2.6209537 0 0 Z " fill="#CCBCD6" transform="translate(94,52)"/>
<path d="M0 0 C5.92536446 5.98087139 7.32281631 9.66189634 7.39160156 18.18115234 C7.27472384 24.1290881 5.81937154 27.58281378 2 32 C1.401875 32.845625 0.80375 33.69125 0.1875 34.5625 C-11.09984953 47.13983234 -25.25758379 53.83408347 -42.05029297 55.25878906 C-45.22476314 55.41454921 -48.38433998 55.48474168 -51.5625 55.5 C-53.04194092 55.50942627 -53.04194092 55.50942627 -54.55126953 55.51904297 C-60.31703715 55.41870946 -65.29058394 54.59598963 -70.75073242 52.73022461 C-73.07091883 51.9769762 -75.35131102 51.49551624 -77.75 51.0625 C-81.93623601 50.19253621 -84.62539842 48.59584737 -88 46 C-85.13822943 44.56911472 -83.06624227 45.40008303 -80 46 C-79.67 47.32 -79.34 48.64 -79 50 C-78.36835937 49.97679687 -77.73671875 49.95359375 -77.0859375 49.9296875 C-70.51084536 49.79704875 -64.3478452 50.47175425 -57.859375 51.48828125 C-50.93757123 52.40605078 -43.97110077 52.67929561 -37 53 C-37 52.34 -37 51.68 -37 51 C-30.25 48.875 -30.25 48.875 -28 50 C-27.67 48.68 -27.34 47.36 -27 46 C-26.31292969 45.87882812 -25.62585938 45.75765625 -24.91796875 45.6328125 C-23.56638672 45.38144531 -23.56638672 45.38144531 -22.1875 45.125 C-21.29417969 44.96257812 -20.40085937 44.80015625 -19.48046875 44.6328125 C-16.77272154 44.08811551 -16.77272154 44.08811551 -14 42 C-13.67 41.01 -13.34 40.02 -13 39 C-11.02 38.67 -9.04 38.34 -7 38 C-7 37.01 -7 36.02 -7 35 C-5.125 32.8125 -5.125 32.8125 -3 31 C-2.34 31 -1.68 31 -1 31 C-1 30.34 -1 29.68 -1 29 C-0.01 29 0.98 29 2 29 C5.37782201 22.80732631 5.73297311 16.98704236 5 10 C4.06123327 7.22500912 4.06123327 7.22500912 3 5 C0.69 4.67 -1.62 4.34 -4 4 C-4.33 4.99 -4.66 5.98 -5 7 C-5 5.68 -5 4.36 -5 3 C-5.63808594 2.93941406 -6.27617187 2.87882812 -6.93359375 2.81640625 C-8.17302734 2.69072266 -8.17302734 2.69072266 -9.4375 2.5625 C-10.67306641 2.44068359 -10.67306641 2.44068359 -11.93359375 2.31640625 C-14 2 -14 2 -15 1 C-19.07312205 0.28522607 -19.07312205 0.28522607 -23 1 C-26.08947531 3.68695484 -28.55634709 6.72446525 -31 10 C-31.66 9.67 -32.32 9.34 -33 9 C-28.2260319 2.85380435 -24.2390611 -2.02855408 -16.41796875 -3.73828125 C-10.35367364 -4.39467507 -5.17092701 -3.3723437 0 0 Z M-8 0 C-7.67 0.66 -7.34 1.32 -7 2 C-6.67 1.34 -6.34 0.68 -6 0 C-6.66 0 -7.32 0 -8 0 Z " fill="#ED737E" transform="translate(136,99)"/>
<path d="M0 0 C0.66 0.33 1.32 0.66 2 1 C1.67 1.66 1.34 2.32 1 3 C1.83402344 2.84015625 2.66804688 2.6803125 3.52734375 2.515625 C16.68203235 0.5623979 32.48589375 1.1236233 43.62646484 9.17553711 C45.32682597 10.51809831 46.97945018 11.90340185 48.625 13.3125 C49.18445313 13.77333984 49.74390625 14.23417969 50.3203125 14.70898438 C53.12820097 17.08972943 55.08268054 19.12432146 57.1484375 22.23046875 C59.08007658 25.11977699 60.00518259 25.57593376 63 27 C66.59685576 32.25617873 68.54389161 38.03817941 69.54296875 44.28515625 C69.76919922 45.13400391 69.76919922 45.13400391 70 46 C74.58019561 48.2900978 81.12150402 47.41056852 86 46.25 C89.06655438 45.31615533 89.06655438 45.31615533 90.1875 43.0625 C90.455625 42.381875 90.72375 41.70125 91 41 C93.125 39.25 93.125 39.25 95 38 C94.70802098 41.40642186 94.05504603 42.93200196 91.875 45.625 C86.79648556 49.82029454 81.92658227 51.61081853 75.39453125 51.34375 C67.04590774 50.14525266 61.37606021 46.3373425 56 40 C60.38968456 40 61.76905739 42.12805101 65 45 C62.40407644 30.24422399 53.45137392 19.04625337 41.3203125 10.40234375 C32.83220647 5.27232681 24.67059104 4.63918541 14.9375 4.5625 C13.93259521 4.55226807 12.92769043 4.54203613 11.89233398 4.53149414 C5.00702712 4.61188925 -1.56497161 5.41882457 -8 8 C-10.56912453 10.43304043 -10.56912453 10.43304043 -12 13 C-12.99 13.495 -12.99 13.495 -14 14 C-14.1546875 14.928125 -14.1546875 14.928125 -14.3125 15.875 C-15 18 -15 18 -17.4375 19.4375 C-20.4803882 21.29291963 -21.00487602 22.65276481 -22 26 C-22.66 26 -23.32 26 -24 26 C-24.28875 26.969375 -24.5775 27.93875 -24.875 28.9375 C-26 32 -26 32 -28 33 C-23.6073651 18.38645364 -13.73488563 8.60127257 -1 1 C-0.67 0.67 -0.34 0.34 0 0 Z " fill="#BAD4E4" transform="translate(48,20)"/>
<path d="M0 0 C0.66 0.33 1.32 0.66 2 1 C1.21625 1.5775 0.4325 2.155 -0.375 2.75 C-2.80047244 4.82897637 -3.85694417 6.09040333 -5 9 C-3.72125 8.896875 -2.4425 8.79375 -1.125 8.6875 C-0.40570313 8.62949219 0.31359375 8.57148437 1.0546875 8.51171875 C3.39519216 8.12606964 3.39519216 8.12606964 5 5 C5.99 5 6.98 5 8 5 C9.71711243 2.55503957 9.71711243 2.55503957 11 0 C13.66666667 1.33333333 16.33333333 2.66666667 19 4 C18.32195313 4.268125 17.64390625 4.53625 16.9453125 4.8125 C9.63214897 7.89172675 3.85732073 11.65921504 -2 17 C-3.08474609 17.96679688 -3.08474609 17.96679688 -4.19140625 18.953125 C-13.9841551 28.69012765 -16.79496798 42.70309494 -18 56 C-18.33 56 -18.66 56 -19 56 C-22.6258022 40.72407924 -19.44153686 25.43908722 -11.4609375 12.0703125 C-4.54810496 2.27405248 -4.54810496 2.27405248 0 0 Z " fill="#662B77" transform="translate(39,48)"/>
<path d="M0 0 C11.65264754 -0.45498407 20.64224456 0.65242906 30 8 C29.67 10.31 29.34 12.62 29 15 C28.42636719 14.68289062 27.85273437 14.36578125 27.26171875 14.0390625 C23.62432572 12.36799766 19.95687445 12.26978689 16 12 C14.96359375 11.91878906 14.96359375 11.91878906 13.90625 11.8359375 C7.74344012 11.58298635 2.09841872 12.96573794 -3.86328125 14.44140625 C-6.77184517 14.95936969 -8.27985986 15.01417571 -11 14 C-10.15695313 13.85304688 -9.31390625 13.70609375 -8.4453125 13.5546875 C-5.17758584 12.88576463 -2.1195621 12.18612876 1 11 C2.92282004 8.00365304 2.92282004 8.00365304 3 5 C0.69 5 -1.62 5 -4 5 C-3.67 4.01 -3.34 3.02 -3 2 C-2.34 2 -1.68 2 -1 2 C-0.67 1.34 -0.34 0.68 0 0 Z " fill="#512B61" transform="translate(64,25)"/>
<path d="M0 0 C13.86 0 27.72 0 42 0 C41.67 0.99 41.34 1.98 41 3 C39.25 3.84375 39.25 3.84375 37 4.5 C36.19304687 4.74492187 35.38609375 4.98984375 34.5546875 5.2421875 C33.71164063 5.49226562 32.86859375 5.74234375 32 6 C30.37297136 6.53554234 28.74785912 7.0769525 27.125 7.625 C21.82836935 9.39054355 17.41686073 10.1261303 11.8125 10.0625 C11.06291016 10.05798828 10.31332031 10.05347656 9.54101562 10.04882812 C7.69397617 10.03706354 5.84697787 10.01912865 4 10 C4 9.67 4 9.34 4 9 C5.65 9 7.3 9 9 9 C9.226875 8.38125 9.45375 7.7625 9.6875 7.125 C11.38277796 4.38026425 13.02945954 4.06536346 16 3 C14.92878906 2.95101562 13.85757813 2.90203125 12.75390625 2.8515625 C11.35674361 2.77654706 9.9596095 2.7009987 8.5625 2.625 C7.85544922 2.5940625 7.14839844 2.563125 6.41992188 2.53125 C4.60760812 2.42719371 2.80182012 2.22080108 1 2 C0.67 1.34 0.34 0.68 0 0 Z " fill="#E1222E" transform="translate(89,129)"/>
<path d="M0 0 C0 0.33 0 0.66 0 1 C-1.134375 1.02578125 -2.26875 1.0515625 -3.4375 1.078125 C-11.59996448 1.35406733 -17.90176988 1.59909732 -25 6 C-25.99 6 -26.98 6 -28 6 C-25.63707344 3.47411298 -24.33537489 2.11179163 -21 1 C-30.73912128 0.2208703 -40.60350639 2.64053236 -48.3125 8.75 C-49.89087636 10.14895631 -51.45362129 11.56575331 -53 13 C-53.81597656 13.68835938 -54.63195313 14.37671875 -55.47265625 15.0859375 C-59.76418306 18.72850172 -63.18897982 22.11126926 -66 27 C-66.33 26.01 -66.66 25.02 -67 24 C-59.45138252 9.99853209 -45.61773253 1.99645313 -31.0390625 -2.62109375 C-20.55837419 -4.5686546 -10.14135836 -2.62518984 0 0 Z " fill="#DAC5DE" transform="translate(94,52)"/>
<path d="M0 0 C-0.5259375 0.8971875 -0.5259375 0.8971875 -1.0625 1.8125 C-2.33304698 4.10813214 -2.33304698 4.10813214 -1 7 C-3.31 7.66 -5.62 8.32 -8 9 C-8 9.66 -8 10.32 -8 11 C-7.34 11.66 -6.68 12.32 -6 13 C-14.87691323 12.84694977 -21.37684116 9.15315766 -29 5 C-29 3.68 -29 2.36 -29 1 C-28.34644531 1.16371094 -27.69289063 1.32742187 -27.01953125 1.49609375 C-23.23008226 2.12848563 -19.51509049 2.10696709 -15.6875 2.0625 C-14.57665039 2.05573242 -14.57665039 2.05573242 -13.44335938 2.04882812 C-11.62887101 2.03712175 -9.81442466 2.01918898 -8 2 C-8 1.34 -8 0.68 -8 0 C-4.94736336 -0.98120464 -3.05263664 -0.98120464 0 0 Z " fill="#D33B2B" transform="translate(100,114)"/>
<path d="M0 0 C-2.22568901 2.22568901 -4.15493056 3.64520503 -7 5 C-8.34977849 4.36729133 -9.68352881 3.69937532 -11 3 C-13.64653258 3.44150449 -13.64653258 3.44150449 -16 5 C-17.01187895 6.65948148 -18.0126546 8.32580562 -19 10 C-21.1875 10.8125 -21.1875 10.8125 -23 11 C-22.67 9.68 -22.34 8.36 -22 7 C-22.99 7 -23.98 7 -25 7 C-25.226875 7.61875 -25.45375 8.2375 -25.6875 8.875 C-27.37929835 11.61410209 -28.99244161 12.05024472 -32 13 C-32.33 15.31 -32.66 17.62 -33 20 C-34.32 19.67 -35.64 19.34 -37 19 C-40.13706517 23.09947304 -40.13706517 23.09947304 -41 28 C-41.66 28.33 -42.32 28.66 -43 29 C-43.46523063 30.89533342 -43.46523063 30.89533342 -43.625 33.0625 C-43.74875 34.361875 -43.8725 35.66125 -44 37 C-44.33 35.68 -44.66 34.36 -45 33 C-46.485 33.495 -46.485 33.495 -48 34 C-48.82300902 28.65044139 -47.03828069 25.64493405 -44.0390625 21.4375 C-40.1480871 16.78621907 -35.63130681 12.89357652 -31 9 C-30.41476563 8.47148438 -29.82953125 7.94296875 -29.2265625 7.3984375 C-21.39633383 0.91961886 -9.86054854 -0.81792568 0 0 Z " fill="#5C294D" transform="translate(75,52)"/>
<path d="M0 0 C2.6875 0.375 2.6875 0.375 6 2 C9.69052397 7.23074264 11.54037539 13.01619336 12.54296875 19.28515625 C12.69378906 19.85105469 12.84460938 20.41695312 13 21 C17.58019561 23.2900978 24.12150402 22.41056852 29 21.25 C32.06655438 20.31615533 32.06655438 20.31615533 33.1875 18.0625 C33.455625 17.381875 33.72375 16.70125 34 16 C36.125 14.25 36.125 14.25 38 13 C37.70802098 16.40642186 37.05504603 17.93200196 34.875 20.625 C29.79648556 24.82029454 24.92658227 26.61081853 18.39453125 26.34375 C10.04590774 25.14525266 4.37606021 21.3373425 -1 15 C3.38968456 15 4.76905739 17.12805101 8 20 C6.67055945 12.44318001 4.2532614 6.3798921 0 0 Z " fill="#389AAF" transform="translate(105,45)"/>
<path d="M0 0 C0.33 0 0.66 0 1 0 C1.02578125 0.67804688 1.0515625 1.35609375 1.078125 2.0546875 C1.50679164 9.08871742 3.11145672 14.6125043 6 21 C6.50273438 22.34771484 6.50273438 22.34771484 7.015625 23.72265625 C8.25225761 26.58359597 9.1937496 26.79732126 12 28 C14.75 30 14.75 30 17 32 C17 32.66 17 33.32 17 34 C24.26026753 36.17808026 31.45326965 36.59722507 39 37 C35.42661688 39.38225541 33.79378986 39.24033109 29.5625 39.1875 C28.42941406 39.18105469 27.29632813 39.17460938 26.12890625 39.16796875 C23.56431739 39.03029419 21.43946376 38.74922106 19 38 C19 38.66 19 39.32 19 40 C14.70786554 38.20219807 12.62103718 35.34643991 9.78125 31.77734375 C7.92041703 29.61633671 7.92041703 29.61633671 4 29 C3.67 25.7 3.34 22.4 3 19 C2.34 19 1.68 19 1 19 C-1.16205669 14.68413875 -1.06986614 11.44756775 -0.625 6.6875 C-0.51414063 5.43324219 -0.40328125 4.17898437 -0.2890625 2.88671875 C-0.14597656 1.45779297 -0.14597656 1.45779297 0 0 Z " fill="#B03F3C" transform="translate(53,78)"/>
<path d="M0 0 C4.75483533 1.14771887 9.37712911 2.38737062 14 4 C14.99 4.33 15.98 4.66 17 5 C17 4.34 17 3.68 17 3 C18.70833333 3.85416667 20.41666667 4.70833333 22.125 5.5625 C31.8911634 9.17366789 44.49551459 7.75132787 54 4 C55.67888441 3.02065076 57.35178756 2.03013277 59 1 C59.99 1.33 60.98 1.66 62 2 C60.61133677 2.9893091 59.21370149 3.96603078 57.8125 4.9375 C56.64654297 5.75541016 56.64654297 5.75541016 55.45703125 6.58984375 C52.8860007 8.06542726 50.90911705 8.55244353 48 9 C45.66237777 9.65146849 43.32809543 10.31526605 41 11 C41 10.34 41 9.68 41 9 C39.80375 9.33 38.6075 9.66 37.375 10 C24.54632688 13.13988503 10.29827285 8.06759098 -1 2 C-0.67 1.34 -0.34 0.68 0 0 Z " fill="#DD2C59" transform="translate(66,131)"/>
<path d="M0 0 C0.33 0 0.66 0 1 0 C1.4731614 7.88602342 1.17981006 13.20780865 -3 20 C-4.485 19.505 -4.485 19.505 -6 19 C-6 19.66 -6 20.32 -6 21 C-7.62626404 22.38232443 -9.2925002 23.71937515 -11 25 C-11 23.68 -11 22.36 -11 21 C-12.15822266 21.00112793 -13.31644531 21.00225586 -14.50976562 21.00341797 C-18.88637956 20.99969343 -23.26192663 20.95641797 -27.63818359 20.90234375 C-29.5173445 20.88438896 -31.39663513 20.87657719 -33.27587891 20.87988281 C-45.63519425 20.89308016 -57.02321601 20.19795046 -68 14 C-70.43164062 11.29638672 -70.43164062 11.29638672 -72 9 C-67.59066023 10.71298092 -63.36327737 12.71722637 -59.109375 14.78125 C-50.65756376 18.09402023 -42.4058227 18.31576752 -33.40600586 18.26074219 C-31.30618781 18.24996761 -29.20721491 18.26071593 -27.10742188 18.2734375 C-25.75520647 18.27211664 -24.40299159 18.26955575 -23.05078125 18.265625 C-21.84075439 18.26336914 -20.63072754 18.26111328 -19.3840332 18.25878906 C-15.92038982 17.99391193 -13.23278438 17.23740239 -10 16 C-8.14375 15.319375 -8.14375 15.319375 -6.25 14.625 C-2.7461847 12.87309235 -2.32249133 12.47308472 -1 9 C-0.55188863 6.64435404 -0.55188863 6.64435404 -0.375 4.25 C-0.30023438 3.45078125 -0.22546875 2.6515625 -0.1484375 1.828125 C-0.07496094 0.92320313 -0.07496094 0.92320313 0 0 Z " fill="#F08964" transform="translate(141,109)"/>
<path d="M0 0 C0.0825 0.61875 0.165 1.2375 0.25 1.875 C0.80115872 4.18581338 0.80115872 4.18581338 3.046875 5.1328125 C3.69140625 5.41898437 4.3359375 5.70515625 5 6 C4.68546875 6.64324219 4.3709375 7.28648438 4.046875 7.94921875 C-0.8381995 18.2637887 -4.48193147 28.52478206 -5 40 C-5.33 40 -5.66 40 -6 40 C-9.04733044 27.16124715 -7.17289617 14.94468751 -2 3 C-1.34 2.01 -0.68 1.02 0 0 Z " fill="#6B327E" transform="translate(26,64)"/>
<path d="M0 0 C1.99055614 1.72165645 3.88334987 3.48575349 5.7265625 5.36328125 C2.7265625 6.36328125 2.7265625 6.36328125 -0.2734375 5.36328125 C-0.6034375 6.35328125 -0.9334375 7.34328125 -1.2734375 8.36328125 C-1.2734375 7.04328125 -1.2734375 5.72328125 -1.2734375 4.36328125 C-1.91152344 4.30269531 -2.54960937 4.24210937 -3.20703125 4.1796875 C-4.03332031 4.09589844 -4.85960938 4.01210937 -5.7109375 3.92578125 C-6.53464844 3.84457031 -7.35835937 3.76335937 -8.20703125 3.6796875 C-10.2734375 3.36328125 -10.2734375 3.36328125 -11.2734375 2.36328125 C-15.34655955 1.64850732 -15.34655955 1.64850732 -19.2734375 2.36328125 C-22.36291281 5.05023609 -24.82978459 8.0877465 -27.2734375 11.36328125 C-27.9334375 11.03328125 -28.5934375 10.70328125 -29.2734375 10.36328125 C-24.50751078 4.22743839 -20.51456822 -0.70119339 -12.68359375 -2.359375 C-7.64803095 -2.93883198 -4.24249239 -3.05430294 0 0 Z M-4.2734375 1.36328125 C-3.9434375 2.02328125 -3.6134375 2.68328125 -3.2734375 3.36328125 C-2.9434375 2.70328125 -2.6134375 2.04328125 -2.2734375 1.36328125 C-2.9334375 1.36328125 -3.5934375 1.36328125 -4.2734375 1.36328125 Z " fill="#E99C71" transform="translate(132.2734375,97.63671875)"/>
<path d="M0 0 C0 0.33 0 0.66 0 1 C-1.05743408 0.98428955 -1.05743408 0.98428955 -2.13623047 0.96826172 C-5.38244956 0.92625495 -8.62861116 0.9005334 -11.875 0.875 C-13.53789063 0.84986328 -13.53789063 0.84986328 -15.234375 0.82421875 C-24.04535264 0.77238947 -31.82766209 1.64724599 -40 5 C-42.26331522 5.5617286 -44.53416488 6.05655797 -46.81640625 6.53515625 C-48.89157293 6.97691803 -50.94492021 7.47341493 -53 8 C-48.94484856 4.29265882 -45.21967545 2.80171222 -40.0625 1.3125 C-39.37220703 1.10044922 -38.68191406 0.88839844 -37.97070312 0.66992188 C-25.4521817 -3.0915675 -12.70340521 -2.95796545 0 0 Z " fill="#A6E3E4" transform="translate(103,12)"/>
<path d="M0 0 C5.12583611 -0.10251672 9.94997778 -0.03590199 15 1 C15 1.66 15 2.32 15 3 C17.64 3 20.28 3 23 3 C22.34 4.32 21.68 5.64 21 7 C21.66 7.66 22.32 8.32 23 9 C14.12308677 8.84694977 7.62315884 5.15315766 0 1 C0 0.67 0 0.34 0 0 Z " fill="#CA442D" transform="translate(71,118)"/>
<path d="M0 0 C3.34123474 1.4533622 5.56541965 3.29595516 8.125 5.875 C8.80820313 6.55304687 9.49140625 7.23109375 10.1953125 7.9296875 C11.90180904 9.88735669 12.96942541 11.6307409 14 14 C12.02 14.33 10.04 14.66 8 15 C6 12 6 12 6 9 C5.0925 9.061875 4.185 9.12375 3.25 9.1875 C-0.28982642 8.98327924 -1.44931155 8.35448165 -4 6 C-2.68 6 -1.36 6 0 6 C-0.2784375 4.7934375 -0.2784375 4.7934375 -0.5625 3.5625 C-0.706875 2.716875 -0.85125 1.87125 -1 1 C-0.67 0.67 -0.34 0.34 0 0 Z " fill="#361A46" transform="translate(93,34)"/>
<path d="M0 0 C13.86 0 27.72 0 42 0 C41.67 0.99 41.34 1.98 41 3 C21.2 2.505 21.2 2.505 1 2 C0.67 1.34 0.34 0.68 0 0 Z " fill="#D53947" transform="translate(89,129)"/>
<path d="M0 0 C0.66 0.66 1.32 1.32 2 2 C1.72285156 2.78503906 1.44570313 3.57007812 1.16015625 4.37890625 C-3.05117255 16.59325845 -4.74734175 28.39320213 -1 41 C-0.34 41.99 0.32 42.98 1 44 C0.67 44.99 0.34 45.98 0 47 C-3.80946641 41.34724339 -4.72740991 36.77386385 -5 30 C-5.66 30 -6.32 30 -7 30 C-7 27.03 -7 24.06 -7 21 C-6.67 21 -6.34 21 -6 21 C-5.73445313 19.98679687 -5.46890625 18.97359375 -5.1953125 17.9296875 C-4.83864311 16.57809823 -4.48186657 15.22653722 -4.125 13.875 C-3.95097656 13.20984375 -3.77695312 12.5446875 -3.59765625 11.859375 C-2.5368867 7.85202336 -1.35567689 3.92047101 0 0 Z " fill="#A783AA" transform="translate(26,78)"/>
<path d="M0 0 C0.33 0 0.66 0 1 0 C1.02578125 0.67804688 1.0515625 1.35609375 1.078125 2.0546875 C1.50679164 9.08871742 3.11145672 14.6125043 6 21 C6.50273438 22.34964844 6.50273438 22.34964844 7.015625 23.7265625 C8.25554266 26.59018186 9.22267457 26.73036552 12 28 C13.70496537 29.62746694 15.37897032 31.28891311 17 33 C13.00499382 31.6302836 10.19990508 29.74277578 7 27 C7 27.99 7 28.98 7 30 C6.01 29.67 5.02 29.34 4 29 C3.67 25.7 3.34 22.4 3 19 C2.34 19 1.68 19 1 19 C-1.16205669 14.68413875 -1.06986614 11.44756775 -0.625 6.6875 C-0.51414063 5.43324219 -0.40328125 4.17898437 -0.2890625 2.88671875 C-0.14597656 1.45779297 -0.14597656 1.45779297 0 0 Z " fill="#C48FB6" transform="translate(53,78)"/>
<path d="M0 0 C10.24656458 -0.38747513 19.03143819 0.41954024 29 3 C29 3.33 29 3.66 29 4 C27.865625 4.02578125 26.73125 4.0515625 25.5625 4.078125 C17.40003552 4.35406733 11.09823012 4.59909732 4 9 C3.01 9 2.02 9 1 9 C3.36292656 6.47411298 4.66462511 5.11179163 8 4 C7.236875 3.896875 6.47375 3.79375 5.6875 3.6875 C2.77363954 2.94209384 1.97049603 2.15541061 0 0 Z " fill="#C1B3C6" transform="translate(65,49)"/>
<path d="M0 0 C4.52792109 0.46622573 6.27980487 1.87613303 9.1875 5.3125 C9.86167969 6.09238281 10.53585938 6.87226562 11.23046875 7.67578125 C12.80580706 9.74493422 13.93795917 11.63935001 15 14 C15.33 14.66 15.66 15.32 16 16 C14.68 16 13.36 16 12 16 C12 15.34 12 14.68 12 14 C10.576875 13.9071875 10.576875 13.9071875 9.125 13.8125 C8.09375 13.544375 7.0625 13.27625 6 13 C4.32717969 10.11058309 4 8.3408643 4 5 C3.34 5 2.68 5 2 5 C2 4.01 2 3.02 2 2 C1.34 2 0.68 2 0 2 C0 1.34 0 0.68 0 0 Z " fill="#CE2679" transform="translate(57,107)"/>
<path d="M0 0 C1 3 1 3 0.1875 5.375 C-3.53705675 9.8444681 -8.60459481 12.33242881 -14.3046875 13.453125 C-21.18328026 13.79583069 -27.8997785 11.58536329 -33.1875 7.17578125 C-34.86978186 5.50367449 -36.46607645 3.80820127 -38 2 C-35 2 -35 2 -33.60546875 3.2421875 C-32.90357422 4.05042969 -32.90357422 4.05042969 -32.1875 4.875 C-27.63364638 9.57289278 -23.40213951 10.1149031 -17 10.3125 C-12.29646233 10.22496518 -8.89442889 9.86957919 -5 7 C-3.77472052 5.04978917 -3.77472052 5.04978917 -3 3 C-1.375 1.25 -1.375 1.25 0 0 Z " fill="#C5DAE1" transform="translate(142,58)"/>
<path d="M0 0 C4.40933977 1.71298092 8.63672263 3.71722637 12.890625 5.78125 C22.04966419 9.37122516 31.3585661 9.41233531 41.0625 9.625 C42.51499527 9.66326196 43.96746984 9.70231819 45.41992188 9.7421875 C48.94642312 9.83728105 52.47308279 9.92163114 56 10 C56 10.33 56 10.66 56 11 C51.16614741 11.15086448 46.33372983 11.25836513 41.49804688 11.32958984 C39.86108473 11.35934697 38.22427582 11.39996764 36.58789062 11.45263672 C27.60048508 11.73418321 19.56890771 11.43888722 11.0625 8.2890625 C10.07817993 7.92559219 10.07817993 7.92559219 9.07397461 7.55477905 C4.87287902 5.81385623 2.54112782 3.74083949 0 0 Z " fill="#FA8275" transform="translate(69,118)"/>
<path d="M0 0 C0.99 0.33 1.98 0.66 3 1 C1.61133677 1.9893091 0.21370149 2.96603078 -1.1875 3.9375 C-2.35345703 4.75541016 -2.35345703 4.75541016 -3.54296875 5.58984375 C-6.1139993 7.06542726 -8.09088295 7.55244353 -11 8 C-13.33762223 8.65146849 -15.67190457 9.31526605 -18 10 C-18 9.34 -18 8.68 -18 8 C-19.19625 8.33 -20.3925 8.66 -21.625 9 C-25.16602698 9.87897833 -28.33330526 10.34920902 -32 10 C-32.66 9.34 -33.32 8.68 -34 8 C-32.24236328 7.83564453 -32.24236328 7.83564453 -30.44921875 7.66796875 C-14.52765592 6.21935601 -14.52765592 6.21935601 0 0 Z " fill="#EE5069" transform="translate(125,132)"/>
<path d="M0 0 C0.66 0.33 1.32 0.66 2 1 C1.67 2.093125 1.34 3.18625 1 4.3125 C-0.13086649 7.84578884 -0.13086649 7.84578884 0 11 C-1 13.1875 -1 13.1875 -2 15 C-0.68 15 0.64 15 2 15 C1.84402344 15.83144531 1.68804688 16.66289063 1.52734375 17.51953125 C1.33269531 18.60621094 1.13804688 19.69289063 0.9375 20.8125 C0.74027344 21.89144531 0.54304688 22.97039062 0.33984375 24.08203125 C-0.21580075 27.05901781 -0.21580075 27.05901781 1 30 C0.01 29.67 -0.98 29.34 -2 29 C-3.4104414 19.47952054 -4.45512004 8.91024009 0 0 Z " fill="#5B274A" transform="translate(25,88)"/>
<path d="M0 0 C2.64 0.33 5.28 0.66 8 1 C8.33 2.32 8.66 3.64 9 5 C9.94746094 4.96519531 9.94746094 4.96519531 10.9140625 4.9296875 C17.60706042 4.79467025 23.93011929 5.45973711 30.5390625 6.48828125 C35.34372702 7.19867747 40.15919866 7.62459092 45 8 C45 8.33 45 8.66 45 9 C27.71005453 9.35731231 27.71005453 9.35731231 21.10546875 7.4921875 C18.53790874 6.89197867 16.06974154 6.80959579 13.4375 6.6875 C8.01130304 6.28244586 4.14683173 4.51708364 0 1 C0 0.67 0 0.34 0 0 Z " fill="#C9679B" transform="translate(48,144)"/>
<path d="M0 0 C3.53659092 0.56002416 4.95559692 1.67774324 7.1875 4.4375 C7.95126953 5.36369141 7.95126953 5.36369141 8.73046875 6.30859375 C12.6383962 11.51515555 11.5764509 18.79995037 11 25 C9.80684298 28.16902505 8.20094884 30.45318777 6 33 C4.948125 34.4540625 4.948125 34.4540625 3.875 35.9375 C2 38 2 38 -1 39 C0.66443426 35.34304587 2.85128718 32.80023806 5.5625 29.87890625 C9.29081396 25.00575675 9.53761492 19.96416526 9.45703125 14.015625 C8.52448363 7.86240479 4.25069393 4.19963454 0 0 Z " fill="#F2E4DF" transform="translate(132,98)"/>
<path d="M0 0 C6.72413793 0.94137931 6.72413793 0.94137931 9.5 1.53125 C14.62581733 2.21774339 19.71030616 2.10384299 24.875 2.0625 C25.94492188 2.05798828 27.01484375 2.05347656 28.1171875 2.04882812 C30.74484986 2.03709749 33.37239538 2.02068228 36 2 C36 1.34 36 0.68 36 0 C38.97 0 41.94 0 45 0 C38.05712157 4.62858562 30.19133645 4.33767583 22.125 4.3125 C21.10019531 4.32861328 20.07539062 4.34472656 19.01953125 4.36132812 C12.19160565 4.36566607 6.41172991 3.34907155 0 1 C0 0.67 0 0.34 0 0 Z " fill="#E7D7E2" transform="translate(63,150)"/>
<path d="M0 0 C1.32 0 2.64 0 4 0 C4 4.62 4 9.24 4 14 C4.66 14 5.32 14 6 14 C6.33 16.64 6.66 19.28 7 22 C5.04959621 20.04959621 4.14886039 18.56614452 2.9375 16.125 C2.59589844 15.44695312 2.25429688 14.76890625 1.90234375 14.0703125 C-0.17599994 9.30181832 -0.08559337 5.13560236 0 0 Z " fill="#C1AACC" transform="translate(15,94)"/>
<path d="M0 0 C2.66666667 1.33333333 5.33333333 2.66666667 8 4 C7.24074219 4.33773437 6.48148438 4.67546875 5.69921875 5.0234375 C4.70535156 5.46945313 3.71148437 5.91546875 2.6875 6.375 C1.70136719 6.81585938 0.71523438 7.25671875 -0.30078125 7.7109375 C-3.12745207 8.98242758 -3.12745207 8.98242758 -6 11 C-6.99 11 -7.98 11 -9 11 C-8.25 8.5625 -8.25 8.5625 -7 6 C-5.66923011 5.65657551 -4.33568021 5.32380126 -3 5 C-1.22851628 2.52066803 -1.22851628 2.52066803 0 0 Z " fill="#60286E" transform="translate(50,48)"/>
<path d="M0 0 C10.57760397 1.46234156 19.37895555 9.24495691 25.91015625 17.37890625 C26.26980469 17.91386719 26.62945312 18.44882812 27 19 C26.67 19.66 26.34 20.32 26 21 C25.2265625 20.19175781 24.453125 19.38351563 23.65625 18.55078125 C15.80478203 10.44905722 9.37347666 4.23407577 -2 2 C-1.34 1.34 -0.68 0.68 0 0 Z " fill="#91CDDB" transform="translate(79,24)"/>
<path d="M0 0 C0.33 0.99 0.66 1.98 1 3 C-4.61 3.99 -10.22 4.98 -16 6 C-11.60271969 0.13695959 -7.19995568 -1.93169543 0 0 Z " fill="#23ADBD" transform="translate(63,18)"/>
<path d="M0 0 C3 1 3 1 3.94921875 2.63671875 C5.4880547 6.91126307 6.34619582 10.38405568 6 15 C3.53199953 13.84826645 1.95216435 12.95216435 0 11 C0.30300475 8.66253478 0.63858045 6.32914823 1 4 C0.65340705 1.67841935 0.65340705 1.67841935 0 0 Z " fill="#2B0E3D" transform="translate(107,50)"/>
<path d="M0 0 C0 0.99 0 1.98 0 3 C-0.99 3.66 -1.98 4.32 -3 5 C-3.12375 5.639375 -3.2475 6.27875 -3.375 6.9375 C-4 9 -4 9 -6.4375 10.4375 C-9.4803882 12.29291963 -10.00487602 13.65276481 -11 17 C-11.66 17 -12.32 17 -13 17 C-13.28875 17.969375 -13.5775 18.93875 -13.875 19.9375 C-15 23 -15 23 -17 24 C-13.96686071 13.97297157 -8.29387899 6.31196505 0 0 Z " fill="#C5B6CE" transform="translate(37,29)"/>
<path d="M0 0 C4.29718953 1.38914475 6.70687757 3.38031985 9.8125 6.625 C10.99779297 7.85089844 10.99779297 7.85089844 12.20703125 9.1015625 C12.79871094 9.72804688 13.39039063 10.35453125 14 11 C13.67 11.66 13.34 12.32 13 13 C9.08158173 11.69386058 6.67359191 10.16870152 4 7 C4 6.34 4 5.68 4 5 C2.68 4.67 1.36 4.34 0 4 C0 2.68 0 1.36 0 0 Z " fill="#86D0D9" transform="translate(126,24)"/>
<path d="M0 0 C0.06058594 0.67546875 0.12117188 1.3509375 0.18359375 2.046875 C0.26738281 2.93890625 0.35117188 3.8309375 0.4375 4.75 C0.55931641 6.07257812 0.55931641 6.07257812 0.68359375 7.421875 C0.96238465 9.69350452 1.38790577 11.79851823 2 14 C-1.9252025 10.29909479 -4.94580156 6.45040344 -8 2 C-4.91190305 0.23537317 -3.76687864 0 0 0 Z " fill="#16BDCB" transform="translate(106,32)"/>
<path d="M0 0 C5.76044212 0.60636233 10.72014369 2.75658279 16 5 C14 6 12 7 10 8 C10 7.01 10 6.02 10 5 C7.02148438 5.09765625 7.02148438 5.09765625 4.04296875 5.1953125 C2 5 2 5 -1 3 C-0.34 3 0.32 3 1 3 C0.67 2.01 0.34 1.02 0 0 Z " fill="#D92173" transform="translate(73,123)"/>
<path d="M0 0 C3.3 0.33 6.6 0.66 10 1 C9.34 2.32 8.68 3.64 8 5 C8.66 5.66 9.32 6.32 10 7 C8.56163249 6.88541307 7.12429034 6.75790884 5.6875 6.625 C4.88699219 6.55539063 4.08648437 6.48578125 3.26171875 6.4140625 C1 6 1 6 -2 4 C-0.68 3.67 0.64 3.34 2 3 C1.34 2.01 0.68 1.02 0 0 Z " fill="#DB5138" transform="translate(84,120)"/>
<path d="M0 0 C0.99 0 1.98 0 3 0 C4.33810745 5.35242981 3.79276025 8.87782784 2 14 C-0.125 15.5 -0.125 15.5 -2 16 C-2.66 14.68 -3.32 13.36 -4 12 C-2.35 11.67 -0.7 11.34 1 11 C1.12469099 5.42169984 1.12469099 5.42169984 0 0 Z " fill="#35AEBF" transform="translate(140,46)"/>
<path d="M0 0 C0.99580078 0.24556641 0.99580078 0.24556641 2.01171875 0.49609375 C5.62883337 1.10603857 9.15860708 1.10795513 12.8125 1.0625 C13.50537109 1.05798828 14.19824219 1.05347656 14.91210938 1.04882812 C16.60811068 1.03713156 18.30406703 1.01919924 20 1 C19.01 2.485 19.01 2.485 18 4 C15.2114711 4.22107787 12.65346819 4.28107535 9.875 4.1875 C9.12089844 4.17396484 8.36679688 4.16042969 7.58984375 4.14648438 C5.72625873 4.11109985 3.86304022 4.05729167 2 4 C1.34 2.68 0.68 1.36 0 0 Z " fill="#BC3225" transform="translate(71,115)"/>
<path d="M0 0 C1.14229879 3.42689636 0.90861076 5.61102218 0.5625 9.1875 C0.46066406 10.27417969 0.35882812 11.36085938 0.25390625 12.48046875 C0.12822266 13.72763672 0.12822266 13.72763672 0 15 C-0.99 15.33 -1.98 15.66 -3 16 C-4 15 -4 15 -4.09765625 13.15234375 C-4.06510417 11.1015625 -4.03255208 9.05078125 -4 7 C-3.34 7 -2.68 7 -2 7 C-1.34 4.69 -0.68 2.38 0 0 Z " fill="#A577B1" transform="translate(19,79)"/>
<path d="M0 0 C1.65 0.33 3.3 0.66 5 1 C4.01 1.495 4.01 1.495 3 2 C3 3.98 3 5.96 3 8 C3.66 8 4.32 8 5 8 C5 8.66 5 9.32 5 10 C3.0625 9.6875 3.0625 9.6875 1 9 C0.67 8.01 0.34 7.02 0 6 C-0.66 5.67 -1.32 5.34 -2 5 C-1.34 3.35 -0.68 1.7 0 0 Z " fill="#03D4D9" transform="translate(96,24)"/>
<path d="M0 0 C-5.68967564 4.87686484 -9.47323179 6.29516738 -17 6 C-15.125 4.9375 -15.125 4.9375 -13 4 C-12.34 4.33 -11.68 4.66 -11 5 C-10.67 3.68 -10.34 2.36 -10 1 C-6.61981469 -0.04005702 -3.5219721 -0.08004482 0 0 Z " fill="#E96584" transform="translate(119,144)"/>
<path d="M0 0 C0 0.99 0 1.98 0 3 C-2.0014516 4.54698665 -3.90478292 5.83462374 -6.0625 7.125 C-6.62388672 7.48464844 -7.18527344 7.84429687 -7.76367188 8.21484375 C-11.93747597 10.76205676 -15.23247225 11.59916327 -20 12 C-12.5 7 -12.5 7 -10 7 C-10 6.34 -10 5.68 -10 5 C-7.41210938 3.92578125 -7.41210938 3.92578125 -4.82421875 2.8515625 C-2.73466068 1.93193308 -2.73466068 1.93193308 0 0 Z " fill="#F0D6DD" transform="translate(129,138)"/>
<path d="M0 0 C3 3.625 3 3.625 3 7 C4.65 7.33 6.3 7.66 8 8 C8 8.66 8 9.32 8 10 C10.475 10.99 10.475 10.99 13 12 C13 12.33 13 12.66 13 13 C11.02 13 9.04 13 7 13 C6.67 12.01 6.34 11.02 6 10 C5.360625 9.690625 4.72125 9.38125 4.0625 9.0625 C1.48203519 7.73316964 0.95517769 6.70633678 0 4 C0 2.68 0 1.36 0 0 Z " fill="#C52082" transform="translate(49,116)"/>
<path d="M0 0 C0.99 0.495 0.99 0.495 2 1 C2 1.99 2 2.98 2 4 C2.66 4 3.32 4 4 4 C5.17571451 7.67410785 5.07366746 11.16929183 5 15 C0.89916809 9.78075939 -0.26060773 6.77580101 0 0 Z " fill="#A22272" transform="translate(43,108)"/>
<path d="M0 0 C2.31 0 4.62 0 7 0 C4.56727664 4.74381055 4.56727664 4.74381055 2.0625 5.875 C-0.17912267 6.01085592 -1.86994118 5.68466176 -4 5 C-3.67 4.01 -3.34 3.02 -3 2 C-2.01 2 -1.02 2 0 2 C0 1.34 0 0.68 0 0 Z " fill="#7A5688" transform="translate(46,25)"/>
<path d="M0 0 C6.31631828 0.40316925 10.64993984 2.71232131 16 6 C13.45297384 7.27351308 12.5717055 6.80191925 9.875 6.0625 C9.15054688 5.86785156 8.42609375 5.67320313 7.6796875 5.47265625 C7.12539062 5.31667969 6.57109375 5.16070313 6 5 C6 4.34 6 3.68 6 3 C5.195625 2.87625 4.39125 2.7525 3.5625 2.625 C2.716875 2.41875 1.87125 2.2125 1 2 C0.67 1.34 0.34 0.68 0 0 Z " fill="#94E3E6" transform="translate(103,13)"/>
<path d="M0 0 C3.52582996 1.37469182 6.95050404 2.89078127 10.375 4.5 C14.54847353 6.41448921 18.54488739 7.91097247 23 9 C23 9.33 23 9.66 23 10 C15.59922357 9.63602739 9.37828921 7.87925459 3 4 C1.1796875 1.83203125 1.1796875 1.83203125 0 0 Z " fill="#F98999" transform="translate(69,118)"/>
<path d="M0 0 C0.33 0 0.66 0 1 0 C1.33 1.98 1.66 3.96 2 6 C2.66 6 3.32 6 4 6 C3.34 11.28 2.68 16.56 2 22 C1.67 22 1.34 22 1 22 C-0.17700048 17.37540756 -0.11408412 12.92133538 -0.0625 8.1875 C-0.05573242 7.00510742 -0.05573242 7.00510742 -0.04882812 5.79882812 C-0.03711312 3.86585239 -0.01917998 1.93291607 0 0 Z " fill="#744183" transform="translate(19,82)"/>
<path d="M0 0 C0.20625 0.61875 0.4125 1.2375 0.625 1.875 C2.55104214 4.85161057 4.66858267 4.9108828 8 6 C10.15624526 7.53669063 12.03078334 9.21832779 14 11 C10.60406522 11 9.93380119 10.47834052 7.3125 8.5 C6.68988281 8.0359375 6.06726562 7.571875 5.42578125 7.09375 C4.72001953 6.55234375 4.72001953 6.55234375 4 6 C4 6.99 4 7.98 4 9 C3.01 8.67 2.02 8.34 1 8 C0.67 5.36 0.34 2.72 0 0 Z " fill="#C8749F" transform="translate(56,99)"/>
<path d="M0 0 C0.33 1.65 0.66 3.3 1 5 C-0.32 4.67 -1.64 4.34 -3 4 C-4.98 6.97 -4.98 6.97 -7 10 C-7.66 9.34 -8.32 8.68 -9 8 C-9 6.125 -9 6.125 -8 4 C-2.77777778 0 -2.77777778 0 0 0 Z " fill="#4F2342" transform="translate(41,67)"/>
<path d="M0 0 C2.31 0.66 4.62 1.32 7 2 C7 2.66 7 3.32 7 4 C12.94 5.485 12.94 5.485 19 7 C18.34 7.66 17.68 8.32 17 9 C10.5811453 7.26375242 4.86215164 5.14819255 -1 2 C-0.67 1.34 -0.34 0.68 0 0 Z " fill="#D62F7A" transform="translate(66,131)"/>
<path d="M0 0 C-0.125 1.8125 -0.125 1.8125 -1 4 C-2.96615661 5.0650015 -4.96726926 6.06833174 -7 7 C-7.33 7.66 -7.66 8.32 -8 9 C-9.97888961 9.72693904 -11.97954558 10.39816251 -14 11 C-3.32352941 0 -3.32352941 0 0 0 Z " fill="#5B3953" transform="translate(50,58)"/>
<path d="M0 0 C3.47196006 2.68287823 4.0949599 5.82289183 5 10 C5.30131064 14.44433195 5.12425233 17.13082611 3 21 C3.03480469 20.31292969 3.06960937 19.62585938 3.10546875 18.91796875 C3.13253906 18.01691406 3.15960938 17.11585937 3.1875 16.1875 C3.22230469 15.29417969 3.25710937 14.40085937 3.29296875 13.48046875 C2.9458581 10.54159855 2.15201846 9.90525368 0 8 C0.375 6.0625 0.375 6.0625 1 4 C0.62092718 1.81296615 0.62092718 1.81296615 0 0 Z " fill="#AFDAE2" transform="translate(140,37)"/>
<path d="M0 0 C0.66 0 1.32 0 2 0 C1.67 0.66 1.34 1.32 1 2 C0.67 1.34 0.34 0.68 0 0 Z M0 2 C-0.33 2.66 -0.66 3.32 -1 4 C-0.34 4 0.32 4 1 4 C0.67 4.99 0.34 5.98 0 7 C-1.65 6.67 -3.3 6.34 -5 6 C-5 5.34 -5 4.68 -5 4 C-5.66 3.67 -6.32 3.34 -7 3 C-3.375 0.875 -3.375 0.875 0 2 Z " fill="#08BDC5" transform="translate(68,14)"/>
<path d="M0 0 C0.33 0 0.66 0 1 0 C1.31461385 7.09629025 1.44572039 12.68284595 -2 19 C-3.49278322 15.11876362 -2.30030822 12.82868532 -1 9 C-0.54967291 6.00924077 -0.25445139 3.01324012 0 0 Z " fill="#F3AF7A" transform="translate(141,109)"/>
<path d="M0 0 C1.5625 1.1875 1.5625 1.1875 3 3 C2.6875 5.6875 2.6875 5.6875 2 8 C0.02 8.33 -1.96 8.66 -4 9 C-3.2884375 7.88625 -3.2884375 7.88625 -2.5625 6.75 C-1.22130673 4.38949985 -0.487688 2.63351523 0 0 Z " fill="#EB8629" transform="translate(138,104)"/>
<path d="M0 0 C2.66666667 1.33333333 5.33333333 2.66666667 8 4 C4.7 4.66 1.4 5.32 -2 6 C-1 2 -1 2 0 0 Z " fill="#561B67" transform="translate(50,48)"/>
<path d="M0 0 C5.11310018 -0.08970351 9.96109772 -0.0283474 15 1 C15.33 1.66 15.66 2.32 16 3 C10.44276716 4.85241095 5.42946849 2.5969025 0 1 C0 0.67 0 0.34 0 0 Z " fill="#1EDCDA" transform="translate(88,12)"/>
<path d="M0 0 C0.89203125 0.01804688 1.7840625 0.03609375 2.703125 0.0546875 C3.71632812 0.08949219 3.71632812 0.08949219 4.75 0.125 C4.42 1.115 4.09 2.105 3.75 3.125 C-0.54 2.795 -4.83 2.465 -9.25 2.125 C-5.38209997 0.19104999 -4.0999541 -0.10789353 0 0 Z " fill="#D23435" transform="translate(126.25,128.875)"/>
<path d="M0 0 C3.64927898 3.64927898 4.91585183 8.42923408 5.1875 13.5 C5.125625 14.325 5.06375 15.15 5 16 C3 13 3 13 3 9 C2.34 9 1.68 9 1 9 C0.67 6.03 0.34 3.06 0 0 Z " fill="#7A1357" transform="translate(31,87)"/>
<path d="M0 0 C0.66 0.66 1.32 1.32 2 2 C1.06409496 3.1055189 0.12620142 4.20935453 -0.8125 5.3125 C-1.33457031 5.92738281 -1.85664062 6.54226562 -2.39453125 7.17578125 C-3.87172469 8.85424679 -5.40039131 10.43882034 -7 12 C-6.67566492 6.64847115 -3.50295176 3.71719957 0 0 Z " fill="#D3B3D8" transform="translate(34,67)"/>
<path d="M0 0 C0.66 0.66 1.32 1.32 2 2 C1.625 4.125 1.625 4.125 1 6 C0.34 5.67 -0.32 5.34 -1 5 C-1.33 5.66 -1.66 6.32 -2 7 C-2.99 7.495 -2.99 7.495 -4 8 C-3.6875 5.125 -3.6875 5.125 -3 2 C-2.01 1.34 -1.02 0.68 0 0 Z " fill="#BF067C" transform="translate(55,101)"/>
<path d="M0 0 C2.875 0.5 2.875 0.5 6 2 C8.00966695 6.05506131 8.32193855 9.69646281 7 14 C6.74605469 13.32453125 6.49210937 12.6490625 6.23046875 11.953125 C5.88628906 11.06109375 5.54210937 10.1690625 5.1875 9.25 C4.85105469 8.36828125 4.51460938 7.4865625 4.16796875 6.578125 C3.03153178 4.06960192 1.73457073 2.12720995 0 0 Z " fill="#61A3BC" transform="translate(105,45)"/>
<path d="M0 0 C1.65 0.33 3.3 0.66 5 1 C4.67 1.99 4.34 2.98 4 4 C4.66 4.33 5.32 4.66 6 5 C0.58461538 5.36923077 0.58461538 5.36923077 -2.375 3.5 C-2.91125 3.005 -3.4475 2.51 -4 2 C-2.68 2 -1.36 2 0 2 C0 1.34 0 0.68 0 0 Z " fill="#371446" transform="translate(93,38)"/>
<path d="M0 0 C2.64 0.33 5.28 0.66 8 1 C8.103125 1.639375 8.20625 2.27875 8.3125 2.9375 C8.6528125 3.9584375 8.6528125 3.9584375 9 5 C9.99 5.33 10.98 5.66 12 6 C7.01208429 5.52496041 3.9767259 4.0298864 0 1 C0 0.67 0 0.34 0 0 Z " fill="#D3B1CB" transform="translate(48,144)"/>
<path d="M0 0 C3.7952131 1.49097658 5.61042731 3.75700849 8 7 C7.01 7 6.02 7 5 7 C4.34 6.34 3.68 5.68 3 5 C0.93125966 4.3574765 0.93125966 4.3574765 -1 4 C-0.67 2.68 -0.34 1.36 0 0 Z " fill="#3F2E4C" transform="translate(93,34)"/>
<path d="M0 0 C2.29013653 3.4352048 2.17842973 4.985331 2 9 C-1.16115776 7.63016497 -1.9927092 7.0109362 -4 4 C-3.01 4 -2.02 4 -1 4 C-0.67 2.68 -0.34 1.36 0 0 Z " fill="#3A244D" transform="translate(111,56)"/>
<path d="M0 0 C2.97 0 5.94 0 9 0 C3.97583178 3.34944548 -0.09951257 3.09834146 -6 3 C-6 2.67 -6 2.34 -6 2 C-4.02 2 -2.04 2 0 2 C0 1.34 0 0.68 0 0 Z " fill="#EABFCF" transform="translate(99,150)"/>
<path d="M0 0 C0 0.99 0 1.98 0 3 C-2.97 3 -5.94 3 -9 3 C-9 2.34 -9 1.68 -9 1 C-5.8035914 -0.06546953 -3.34252724 -0.07427838 0 0 Z " fill="#BD3E8C" transform="translate(66,146)"/>
<path d="M0 0 C1.5 1.375 1.5 1.375 3 3 C3 5 3 5 1.6875 6.625 C0 8 0 8 -3 8 C-2.37240135 5.07120629 -1.41377341 2.63904371 0 0 Z " fill="#9F7CAE" transform="translate(23,48)"/>
<path d="M0 0 C0.33 0.66 0.66 1.32 1 2 C-0.125 3.5 -0.125 3.5 -2 5 C-5.1875 5.1875 -5.1875 5.1875 -8 5 C-5.59563974 1.39345961 -4.05320393 1.14547068 0 0 Z " fill="#F59C5F" transform="translate(138,122)"/>
<path d="M0 0 C0 0.99 0 1.98 0 3 C-2.5 4.6875 -2.5 4.6875 -5 6 C-6.32 5.01 -7.64 4.02 -9 3 C-6.03 2.01 -3.06 1.02 0 0 Z " fill="#F99E4C" transform="translate(140,111)"/>
<path d="M0 0 C0 0.99 0 1.98 0 3 C-1.32 3 -2.64 3 -4 3 C-4.33 3.99 -4.66 4.98 -5 6 C-5.99 4.68 -6.98 3.36 -8 2 C-4.91190305 0.23537317 -3.76687864 0 0 0 Z " fill="#0DC5CB" transform="translate(106,32)"/>
<path d="M0 0 C0.99 0.33 1.98 0.66 3 1 C2.34 1 1.68 1 1 1 C1 1.66 1 2.32 1 3 C1.66 3 2.32 3 3 3 C3 3.66 3 4.32 3 5 C0.69 5 -1.62 5 -4 5 C-3.67 4.01 -3.34 3.02 -3 2 C-2.34 2 -1.68 2 -1 2 C-0.67 1.34 -0.34 0.68 0 0 Z " fill="#603A75" transform="translate(64,25)"/>
<path d="M0 0 C0.556875 0.28875 1.11375 0.5775 1.6875 0.875 C4.08494645 2.0413253 6.51596939 3.0339881 9 4 C9 4.99 9 5.98 9 7 C4.58110387 5.64978174 2.65654657 3.73884332 0 0 Z " fill="#CBB4C8" transform="translate(39,137)"/>
<path d="M0 0 C2.97 0 5.94 0 9 0 C9 0.66 9 1.32 9 2 C8.34 2 7.68 2 7 2 C7 2.66 7 3.32 7 4 C4.97954558 3.39816251 2.97888961 2.72693904 1 2 C0.67 1.34 0.34 0.68 0 0 Z " fill="#C04237" transform="translate(71,118)"/>
<path d="M0 0 C3 3.625 3 3.625 3 7 C3.99 7 4.98 7 6 7 C6 7.99 6 8.98 6 10 C3.54896452 9.01958581 2.23241214 8.3486182 0.75 6.125 C0 4 0 4 0 0 Z " fill="#BC197B" transform="translate(49,116)"/>
<path d="M0 0 C0.99 0.33 1.98 0.66 3 1 C2.67 2.32 2.34 3.64 2 5 C0.68 5 -0.64 5 -2 5 C-1.34 3.35 -0.68 1.7 0 0 Z " fill="#0C7DA0" transform="translate(135,61)"/>
<path d="M0 0 C3.3 0 6.6 0 10 0 C7.77810176 2.22189824 5.91517292 2.92598892 3 4 C3 3.01 3 2.02 3 1 C2.01 0.67 1.02 0.34 0 0 Z " fill="#602F56" transform="translate(65,52)"/>
<path d="M0 0 C7.57142857 1.85714286 7.57142857 1.85714286 10 5 C6.28111761 4.49287967 3.26545761 3.88391785 0 2 C0 1.34 0 0.68 0 0 Z " fill="#D92168" transform="translate(73,133)"/>
<path d="M0 0 C1.98 0 3.96 0 6 0 C6 0.66 6 1.32 6 2 C4.37373596 3.38232443 2.7074998 4.71937515 1 6 C0.67 4.02 0.34 2.04 0 0 Z " fill="#EA625F" transform="translate(129,128)"/>
<path d="M0 0 C3.45925163 1.2491742 6.14693203 2.67527795 9 5 C8.01 5.495 8.01 5.495 7 6 C3.63050557 4.31525278 2.12055614 3.1808342 0 0 Z " fill="#EC6E93" transform="translate(69,118)"/>
<path d="M0 0 C0.99 0.495 0.99 0.495 2 1 C2 1.99 2 2.98 2 4 C2.66 4 3.32 4 4 4 C3.67 5.32 3.34 6.64 3 8 C1.5 6.8125 1.5 6.8125 0 5 C-0.1875 2.3125 -0.1875 2.3125 0 0 Z " fill="#B20E75" transform="translate(43,108)"/>
<path d="M0 0 C2.88437779 1.29299694 4.87219421 2.65941363 7 5 C6.34 5 5.68 5 5 5 C4.67 5.66 4.34 6.32 4 7 C0 2.25 0 2.25 0 0 Z " fill="#A64650" transform="translate(60,105)"/>
<path d="M0 0 C4.42857143 5.14285714 4.42857143 5.14285714 5 9 C2 8 2 8 0.8125 6.1875 C0 4 0 4 0 0 Z " fill="#DEC3D4" transform="translate(56,95)"/>
<path d="" fill="#FEFEFE" transform="translate(0,0)"/>
<path d="" fill="#FEFEFE" transform="translate(0,0)"/>
<path d="" fill="#FEFEFE" transform="translate(0,0)"/>
<path d="" fill="#FEFEFE" transform="translate(0,0)"/>
<path d="" fill="#FEFEFE" transform="translate(0,0)"/>
<path d="" fill="#FEFEFE" transform="translate(0,0)"/>
<path d="" fill="#FEFEFE" transform="translate(0,0)"/>
<path d="" fill="#FEFEFE" transform="translate(0,0)"/>
<path d="" fill="#FEFEFE" transform="translate(0,0)"/>
</svg>
